<svg xmlns="http://www.w3.org/2000/svg" width="36" height="36" viewBox="0 0 36 36">
    <g fill="none" fill-rule="nonzero">
        <path fill="#3C5A99" d="M34.013 36C35.11 36 36 35.11 36 34.013V1.987C36 .889 35.11 0 34.013 0H1.987C.889 0 0 .89 0 1.987v32.026C0 35.11.89 36 1.987 36h32.026z"/>
        <path fill="#FFF" d="M25.035 36V22.316h5.012l.75-5.334h-5.762v-3.404c0-1.544.467-2.597 2.883-2.597H31V6.21C30.467 6.144 28.638 6 26.51 6c-4.443 0-7.485 2.485-7.485 7.05v3.932H14v5.334h5.025V36h6.01z"/>
    </g>
</svg>
