<?xml version="1.0" encoding="UTF-8"?>
<svg width="36px" height="36px" viewBox="0 0 36 36" version="1.1" xmlns="http://www.w3.org/2000/svg" xmlns:xlink="http://www.w3.org/1999/xlink">
    <g id="Page-1" stroke="none" stroke-width="1" fill="none" fill-rule="evenodd">
        <g id="1.1-Sign-Up-L" transform="translate(-918.000000, -839.000000)">
            <g id="Group-6" transform="translate(918.000000, 839.000000)">
                <rect id="Rectangle" fill-rule="nonzero" x="0" y="0" width="36" height="36"></rect>
                <g id="Group">
                    <path d="M8.14689474,22.6343368 C8.14689474,24.7176 6.53542105,26.4067579 4.54689474,26.4067579 C2.55931579,26.4067579 0.946894737,24.7176 0.946894737,22.6343368 C0.946894737,20.5510737 2.55931579,18.8619158 4.54689474,18.8619158 L8.14689474,18.8619158 L8.14689474,22.6343368 Z" id="Fill-15" fill="#E51859"></path>
                    <path d="M9.94689474,22.6343368 C9.94689474,20.5510737 11.5583684,18.8619158 13.5468947,18.8619158 C15.5344737,18.8619158 17.1468947,20.5510737 17.1468947,22.6343368 L17.1468947,32.0653895 C17.1468947,34.1486526 15.5344737,35.8378105 13.5468947,35.8378105 C11.5583684,35.8378105 9.94689474,34.1486526 9.94689474,32.0653895 L9.94689474,22.6343368 Z" id="Fill-17" fill="#E51859"></path>
                    <path d="M13.5467053,7.54474737 C11.5581789,7.54474737 9.94670526,5.85558947 9.94670526,3.77232632 C9.94670526,1.68906316 11.5581789,-9.47368422e-05 13.5467053,-9.47368422e-05 C15.5352316,-9.47368422e-05 17.1467053,1.68906316 17.1467053,3.77232632 L17.1467053,7.54474737 L13.5467053,7.54474737 Z" id="Fill-19" fill="#18C6F0"></path>
                    <path d="M13.5467053,9.43105263 C15.5352316,9.43105263 17.1467053,11.1202105 17.1467053,13.2034737 C17.1467053,15.2867368 15.5352316,16.9758947 13.5467053,16.9758947 L4.54670526,16.9758947 C2.55912632,16.9758947 0.947652632,15.2867368 0.947652632,13.2034737 C0.947652632,11.1202105 2.55912632,9.43105263 4.54670526,9.43105263 L13.5467053,9.43105263 Z" id="Fill-21" fill="#18C6F0"></path>
                    <path d="M27.9459474,13.2033789 C27.9459474,11.1201158 29.5574211,9.43095789 31.5459474,9.43095789 C33.5335263,9.43095789 35.1459474,11.1201158 35.1459474,13.2033789 C35.1459474,15.2866421 33.5335263,16.9758 31.5459474,16.9758 L27.9459474,16.9758 L27.9459474,13.2033789 Z" id="Fill-23" fill="#0AB77F"></path>
                    <path d="M26.1460421,13.2033789 C26.1460421,15.2866421 24.5345684,16.9758 22.5460421,16.9758 C20.5584632,16.9758 18.9460421,15.2866421 18.9460421,13.2033789 L18.9460421,3.77232632 C18.9460421,1.68906316 20.5584632,-9.47368422e-05 22.5460421,-9.47368422e-05 C24.5345684,-9.47368422e-05 26.1460421,1.68906316 26.1460421,3.77232632 L26.1460421,13.2033789 Z" id="Fill-25" fill="#0AB77F"></path>
                    <path d="M22.5462316,28.2928737 C24.5347579,28.2928737 26.1462316,29.9820316 26.1462316,32.0652947 C26.1462316,34.1485579 24.5347579,35.8377158 22.5462316,35.8377158 C20.5577053,35.8377158 18.9462316,34.1485579 18.9462316,32.0652947 L18.9462316,28.2928737 L22.5462316,28.2928737 Z" id="Fill-27" fill="#EFB32F"></path>
                    <path d="M22.5462316,26.4066632 C20.5577053,26.4066632 18.9462316,24.7175053 18.9462316,22.6342421 C18.9462316,20.5509789 20.5577053,18.8618211 22.5462316,18.8618211 L31.5452842,18.8618211 C33.5338105,18.8618211 35.1452842,20.5509789 35.1452842,22.6342421 C35.1452842,24.7175053 33.5338105,26.4066632 31.5452842,26.4066632 L22.5462316,26.4066632 Z" id="Fill-29" fill="#EFB32F"></path>
                </g>
            </g>
        </g>
    </g>
</svg>
